<svg width="16" height="16" viewBox="0 0 16 16" fill="none" xmlns="http://www.w3.org/2000/svg">
    <g clip-path="url(#clip0_2866_90)">
        <path d="M11.6667 2C10.38 2 9.33333 3.04667 9.33333 4.33333V5.33333H6.66667V4.33333C6.66667 3.04667 5.62 2 4.33333 2C3.04667 2 2 3.04667 2 4.33333C2 5.62 3.04667 6.66667 4.33333 6.66667H5.33333V9.33333H4.33333C3.04667 9.33333 2 10.38 2 11.6667C2 12.9533 3.04667 14 4.33333 14C5.62 14 6.66667 12.9533 6.66667 11.6667V10.6667H9.33333V11.6667C9.33333 12.9533 10.38 14 11.6667 14C12.9533 14 14 12.9533 14 11.6667C14 10.38 12.9533 9.33333 11.6667 9.33333H10.6667V6.66667H11.6667C12.9533 6.66667 14 5.62 14 4.33333C14 3.04667 12.9533 2 11.6667 2ZM10.6667 5.33333V4.33333C10.6667 3.78 11.1133 3.33333 11.6667 3.33333C12.22 3.33333 12.6667 3.78 12.6667 4.33333C12.6667 4.88667 12.22 5.33333 11.6667 5.33333H10.6667ZM4.33333 5.33333C3.78 5.33333 3.33333 4.88667 3.33333 4.33333C3.33333 3.78 3.78 3.33333 4.33333 3.33333C4.88667 3.33333 5.33333 3.78 5.33333 4.33333V5.33333H4.33333ZM6.66667 9.33333V6.66667H9.33333V9.33333H6.66667ZM11.6667 12.6667C11.1133 12.6667 10.6667 12.22 10.6667 11.6667V10.6667H11.6667C12.22 10.6667 12.6667 11.1133 12.6667 11.6667C12.6667 12.22 12.22 12.6667 11.6667 12.6667ZM4.33333 12.6667C3.78 12.6667 3.33333 12.22 3.33333 11.6667C3.33333 11.1133 3.78 10.6667 4.33333 10.6667H5.33333V11.6667C5.33333 12.22 4.88667 12.6667 4.33333 12.6667Z"
              fill="currentColor"/>
    </g>
    <defs>
        <clipPath id="clip0_2866_90">
            <rect width="16" height="16" fill="currentColor"/>
        </clipPath>
    </defs>
</svg>