<svg width="16" height="16" viewBox="0 0 16 16" fill="none" xmlns="http://www.w3.org/2000/svg">
    <g clip-path="url(#clip0_2866_144)">
        <path d="M7.99331 1.33333C4.31331 1.33333 1.33331 4.31999 1.33331 7.99999C1.33331 11.68 4.31331 14.6667 7.99331 14.6667C11.68 14.6667 14.6666 11.68 14.6666 7.99999C14.6666 4.31999 11.68 1.33333 7.99331 1.33333ZM12.6133 5.33333H10.6466C10.4333 4.49999 10.1266 3.69999 9.72665 2.95999C10.9533 3.37999 11.9733 4.23333 12.6133 5.33333ZM7.99998 2.69333C8.55331 3.49333 8.98665 4.37999 9.27331 5.33333H6.72665C7.01331 4.37999 7.44665 3.49333 7.99998 2.69333ZM2.83998 9.33333C2.73331 8.90666 2.66665 8.45999 2.66665 7.99999C2.66665 7.53999 2.73331 7.09333 2.83998 6.66666H5.09331C5.03998 7.10666 4.99998 7.54666 4.99998 7.99999C4.99998 8.45333 5.03998 8.89333 5.09331 9.33333H2.83998ZM3.38665 10.6667H5.35331C5.56665 11.5 5.87331 12.3 6.27331 13.04C5.04665 12.62 4.02665 11.7733 3.38665 10.6667V10.6667ZM5.35331 5.33333H3.38665C4.02665 4.22666 5.04665 3.37999 6.27331 2.95999C5.87331 3.69999 5.56665 4.49999 5.35331 5.33333V5.33333ZM7.99998 13.3067C7.44665 12.5067 7.01331 11.62 6.72665 10.6667H9.27331C8.98665 11.62 8.55331 12.5067 7.99998 13.3067ZM9.55998 9.33333H6.43998C6.37998 8.89333 6.33331 8.45333 6.33331 7.99999C6.33331 7.54666 6.37998 7.09999 6.43998 6.66666H9.55998C9.61998 7.09999 9.66665 7.54666 9.66665 7.99999C9.66665 8.45333 9.61998 8.89333 9.55998 9.33333ZM9.72665 13.04C10.1266 12.3 10.4333 11.5 10.6466 10.6667H12.6133C11.9733 11.7667 10.9533 12.62 9.72665 13.04V13.04ZM10.9066 9.33333C10.96 8.89333 11 8.45333 11 7.99999C11 7.54666 10.96 7.10666 10.9066 6.66666H13.16C13.2666 7.09333 13.3333 7.53999 13.3333 7.99999C13.3333 8.45999 13.2666 8.90666 13.16 9.33333H10.9066Z"
              fill="currentColor"/>
    </g>
    <defs>
        <clipPath id="clip0_2866_144">
            <rect width="16" height="16" fill="currentColor"/>
        </clipPath>
    </defs>
</svg>