<svg width="25" height="25" viewBox="0 0 20 20" fill="none" xmlns="http://www.w3.org/2000/svg">
    <path fill-rule="evenodd" clip-rule="evenodd"
          d="M10.0216 1.66666C5.43079 1.66666 1.70996 5.38749 1.70996 9.97832C1.70996 13.65 4.09079 16.7658 7.39413 17.8658C7.80996 17.9408 7.95996 17.685 7.95996 17.465C7.95996 17.2675 7.95329 16.7442 7.95079 16.0517C5.63829 16.5533 5.14996 14.9367 5.14996 14.9367C4.77329 13.9767 4.22746 13.7208 4.22746 13.7208C3.47329 13.205 4.28496 13.2167 4.28496 13.2167C5.11996 13.275 5.55746 14.0733 5.55746 14.0733C6.29913 15.3433 7.50413 14.9767 7.97579 14.7642C8.05163 14.2267 8.26829 13.86 8.50496 13.6525C6.65996 13.4433 4.71996 12.73 4.71996 9.54416C4.71996 8.63832 5.04413 7.89499 5.57329 7.31499C5.48913 7.10416 5.20163 6.25832 5.65579 5.11499C5.65579 5.11499 6.35329 4.89082 7.94079 5.96582C8.61879 5.78138 9.31816 5.68724 10.0208 5.68582C10.7234 5.68696 11.4229 5.78111 12.1008 5.96582C13.6891 4.88999 14.3858 5.11499 14.3858 5.11499C14.84 6.25832 14.555 7.10416 14.4683 7.31499C15.0016 7.89499 15.3216 8.63749 15.3216 9.54416C15.3216 12.7383 13.38 13.44 11.5283 13.6458C11.8241 13.9025 12.0908 14.4092 12.0908 15.1842C12.0908 16.2958 12.0808 17.1925 12.0808 17.465C12.0808 17.6875 12.2291 17.9458 12.6533 17.8642C15.955 16.7625 18.3333 13.6492 18.3333 9.97832C18.3333 5.38749 14.6125 1.66666 10.0216 1.66666Z"
          fill="currentColor"/>
</svg>