<svg width="17" height="17" viewBox="0 0 17 17" fill="none" xmlns="http://www.w3.org/2000/svg">
    <path d="M4.1625 8.33333C4.1625 10.6342 6.03417 12.5058 8.335 12.5058C10.6358 12.5058 12.5075 10.6342 12.5075 8.33333C12.5075 6.0325 10.6358 4.16083 8.335 4.16083C6.03417 4.16083 4.1625 6.0325 4.1625 8.33333ZM7.5 14.1667H9.16667V16.6667H7.5V14.1667ZM7.5 0H9.16667V2.5H7.5V0ZM0 7.5H2.5V9.16667H0V7.5ZM14.1667 7.5H16.6667V9.16667H14.1667V7.5ZM3.03083 14.815L1.8525 13.6367L3.62 11.8692L4.79833 13.0475L3.03083 14.815ZM11.8683 3.62L13.6367 1.85167L14.815 3.03L13.0467 4.79833L11.8683 3.62ZM3.62 4.79917L1.8525 3.03083L3.03167 1.8525L4.79833 3.62083L3.62 4.79917ZM14.815 13.6367L13.6367 14.815L11.8683 13.0467L13.0467 11.8683L14.815 13.6367Z"
          fill="currentColor"/>
</svg>